<svg id="Layer_1" data-name="Layer 1" xmlns="http://www.w3.org/2000/svg" viewBox="0 0 210 93.73"><defs><style>.cls-1{fill:#231f20}.cls-2{fill:#0f2d52}.cls-3{fill:#fff}</style></defs><title>AHT_logo</title><path class="cls-1" d="M206.77 418v-1.91a8.35 8.35 0 0 0 6-3q2-2.53 6.82-13.91L241 348.62h2l25.68 58.43q2.56 5.81 4.1 7.18a9.86 9.86 0 0 0 5.16 1.88V418H251.8v-1.91a23.58 23.58 0 0 0 5.83-1c.87-.38 1.3-1.33 1.3-2.83a12.05 12.05 0 0 0-.5-2.65 27.25 27.25 0 0 0-1.41-4l-4.12-9.92h-27.17q-4 10.13-4.79 12.35a11.41 11.41 0 0 0-.78 3.53 3.64 3.64 0 0 0 2.11 3.61 16.83 16.83 0 0 0 4.92.9V418zm44.39-26.47l-11.81-28.39-11.87 28.39z" transform="translate(-201 -348.62)"/><path class="cls-1" d="M275.72 416.11c4-.44 6.54-1.18 7.55-2.23s1.51-3.8 1.51-8.24V361q0-5.53-1.69-7.2t-7.37-2.06v-1.91h28.58v1.91q-5.66.4-7.35 2.06c-1.14 1.11-1.7 3.51-1.7 7.2v20.08h31.3V361q0-5.53-1.66-7.2t-7.4-2.06v-1.91h28.59v1.91c-3.8.27-6.25 1-7.38 2.06s-1.7 3.51-1.7 7.2v45.85c0 3.73.56 6.13 1.68 7.18s3.58 1.74 7.38 2.08V418h-28.57v-1.91q6.09-.6 7.57-2.21t1.49-8.26v-20h-31.3v21.24c0 3.73.56 6.14 1.7 7.2s3.58 1.76 7.35 2.06V418h-28.58zM348.32 349.83h57l.54 17.51H404q-1.8-8.25-4.6-10.74t-11.75-2.49H382v52.74q0 6 1.86 7.38t8.16 1.88V418h-30.1v-1.91c4.36-.34 7.08-1.05 8.16-2.16s1.61-3.87 1.61-8.31v-51.51h-5.79q-8.56 0-11.65 2.46t-4.66 10.77h-1.86z" transform="translate(-201 -348.62)"/><path class="cls-2" d="M0 75.15h210v18.58H0z"/><path class="cls-3" d="M229.75 427.66h2.78v10.79h-2.78zM237.65 427.66h3.19l7.87 8.1v-8.1h2.67v10.79h-3.13l-7.93-8.1v8.1h-2.67zM262.42 427.36c2 0 6.11.3 6.46 3.43h-3c-.09-.83-1-1.74-3.33-1.74-1.85 0-3.08.47-3.08 1.49 0 2.53 9.86.1 9.86 4.71 0 2.78-3.54 3.51-6.36 3.51-4.76 0-6.66-1.53-6.7-3.8h3c.07 1.42 1.52 2.1 3.8 2.1 1.68 0 3.26-.4 3.26-1.58 0-2.68-9.75-.35-9.75-4.78 0-2.4 2.62-3.34 5.84-3.34zM274.48 427.66h2.78v6.09c0 1.5.08 3.31 3.69 3.31s3.7-1.81 3.7-3.31v-6.09h2.78v6.15c0 1.79-.07 4.95-6.48 4.95s-6.47-3.16-6.47-4.95zM317 427.66h3.3l5.89 10.79h-3.09l-1.39-2.67h-6.23l-1.37 2.67h-3zm3.87 6.43l-2.26-4.55-2.29 4.55zM330.7 427.66h3.18l7.88 8.1v-8.1h2.67v10.79h-3.13l-7.93-8.1v8.1h-2.67zM368.78 427.66h11.48v1.7h-8.7v2.72h8.35v1.69h-8.35v3h8.85v1.69h-11.63zM360.71 434.63c-.33 1.09-1.35 2.43-4 2.43s-4.65-1.55-4.65-3.8c0-2.82 1.91-4.21 4.47-4.21 2.15 0 3.7.83 4.15 2.24l3-.15c-.56-2.09-2.88-3.78-7.1-3.78-5.2 0-7.39 2.66-7.39 5.7s2.28 5.7 7.06 5.7c5.07 0 6.91-2 7.46-4zM303 434.05a13.4 13.4 0 0 0 1.88-.4c1.33-.47 1.59-1.65 1.59-3 0-1.68-1.1-2.94-4.47-2.94h-8.37v10.79h2.78v-4.26h3.41l4.26 4.25h3.34zm-6.59-4.69h4.8c1.46 0 2.37.44 2.37 1.55s-.84 1.59-2.37 1.59h-4.8z" transform="translate(-201 -348.62)"/></svg>