<svg xmlns="http://www.w3.org/2000/svg" viewBox="283 1358 89.039 62.5"><defs><style>.a{fill:#333}.b{fill:none;stroke:#f59d15;stroke-linecap:round;stroke-linejoin:round;stroke-miterlimit:10;stroke-width:2.5px}</style></defs><path class="a" d="M362.54 1405h-70a2.476 2.476 0 0 1-2.5-2.5v-42a2.476 2.476 0 0 1 2.5-2.5h70a2.476 2.476 0 0 1 2.5 2.5v42a2.476 2.476 0 0 1-2.5 2.5zm-69.5-3h69v-41h-69z"/><path class="a" d="M370.54 1420.5h-86a1.709 1.709 0 0 1-1.3-.7 1.41 1.41 0 0 1-.1-1.4l7-15.5a1.508 1.508 0 0 1 1.4-.9h72a1.508 1.508 0 0 1 1.4.9l6.9 15.3a1.077 1.077 0 0 1 .2.8 1.538 1.538 0 0 1-1.5 1.5zm-83.7-3h81.4l-5.7-12.5h-70z"/><path class="a" d="M335.04 1416h-15a1.5 1.5 0 0 1 0-3h15a1.5 1.5 0 0 1 0 3z"/><path class="a" d="M336.04 1420.5a1.593 1.593 0 0 1-1.5-1.2l-1-4.5a1.492 1.492 0 1 1 2.9-.7l1 4.5a1.491 1.491 0 0 1-1.1 1.8.367.367 0 0 1-.3.1zM319.04 1419.8h-.4a1.491 1.491 0 0 1-1.1-1.8l1-3.8a1.492 1.492 0 0 1 2.9.7l-1 3.8a1.32 1.32 0 0 1-1.4 1.1z"/><path class="b" d="M327.54 1386.9l3.2-3.2 5.4 5.3 6.5-22.6-22.6 6.5 5.4 5.4-3.3 3.2-9.6 9.7 5.3 5.4z"/></svg>