<svg xmlns="http://www.w3.org/2000/svg" viewBox="291 1822 72.8 78"><defs><style>.a{fill:#333}.b{fill:#ff9328}</style></defs><path class="a" d="M362.2 1838.4a1.538 1.538 0 0 1-1.5-1.5 11.843 11.843 0 0 0-11.8-11.9 1.538 1.538 0 0 1-1.5-1.5 1.473 1.473 0 0 1 1.5-1.5 14.937 14.937 0 0 1 14.9 14.9 1.63 1.63 0 0 1-1.6 1.5zM292.5 1838.4a1.538 1.538 0 0 1-1.5-1.5 14.937 14.937 0 0 1 14.9-14.9 1.538 1.538 0 0 1 1.5 1.5 1.538 1.538 0 0 1-1.5 1.5 11.865 11.865 0 0 0-11.9 11.9 1.538 1.538 0 0 1-1.5 1.5z"/><path class="b" d="M327.2 1860.5a1.538 1.538 0 0 1-1.5-1.5v-16a1.5 1.5 0 0 1 3 0v16a1.473 1.473 0 0 1-1.5 1.5z"/><path class="b" d="M318.5 1869.2a1.5 1.5 0 0 1-1.1-.4 1.45 1.45 0 0 1 0-2.1l8.8-8.8a1.485 1.485 0 1 1 2.1 2.1l-8.8 8.8a1.159 1.159 0 0 1-1 .4zM327.2 1890.5a1.538 1.538 0 0 1-1.5-1.5v-5a1.5 1.5 0 0 1 3 0v5a1.473 1.473 0 0 1-1.5 1.5zM327.2 1833.5a1.538 1.538 0 0 1-1.5-1.5v-5a1.5 1.5 0 0 1 3 0v5a1.473 1.473 0 0 1-1.5 1.5zM300.7 1861h-5a1.5 1.5 0 0 1 0-3h5a1.538 1.538 0 0 1 1.5 1.5 1.473 1.473 0 0 1-1.5 1.5zM358.7 1861h-6a1.5 1.5 0 0 1 0-3h6a1.538 1.538 0 0 1 1.5 1.5 1.473 1.473 0 0 1-1.5 1.5zM304.6 1882.6a1.5 1.5 0 0 1-1.1-.4 1.45 1.45 0 0 1 0-2.1l4.7-4.7a1.485 1.485 0 0 1 2.1 2.1l-4.7 4.7a1.159 1.159 0 0 1-1 .4zM346.2 1841a1.5 1.5 0 0 1-1.1-.4 1.45 1.45 0 0 1 0-2.1l3.1-3.1a1.485 1.485 0 0 1 2.1 2.1l-3.1 3.1a1.159 1.159 0 0 1-1 .4zM308.3 1841a1.5 1.5 0 0 1-1.1-.4l-3.5-3.5a1.485 1.485 0 0 1 2.1-2.1l3.5 3.5a1.45 1.45 0 0 1 0 2.1 1.284 1.284 0 0 1-1 .4zM349.9 1882.6a1.5 1.5 0 0 1-1.1-.4l-4.7-4.7a1.485 1.485 0 0 1 2.1-2.1l4.7 4.7a1.45 1.45 0 0 1 0 2.1 1.284 1.284 0 0 1-1 .4z"/><path class="a" d="M356.2 1900h-9.5a1.5 1.5 0 0 1 0-3h7.3l-3-7a1.523 1.523 0 1 1 2.8-1.2l3.9 9.1a1.392 1.392 0 0 1-.1 1.4 2.1 2.1 0 0 1-1.4.7zM306.7 1900h-8.8a1.213 1.213 0 0 1-1.2-.7 1.7 1.7 0 0 1-.2-1.4l3.3-8.2a1.458 1.458 0 1 1 2.7 1.1l-2.3 6.2h6.6a1.538 1.538 0 0 1 1.5 1.5 1.63 1.63 0 0 1-1.6 1.5zM327.2 1892a33.5 33.5 0 1 1 33.5-33.5 33.566 33.566 0 0 1-33.5 33.5zm0-64a30.5 30.5 0 1 0 30.5 30.5 30.557 30.557 0 0 0-30.5-30.5z"/></svg>