<svg xmlns="http://www.w3.org/2000/svg" viewBox="293 1501 69.011 72.1"><defs><style>.a{fill:#333}.b{fill:#ff9328}</style></defs><path class="a" d="M311.7 1521h-17.4a1.324 1.324 0 0 1-1.3-1.3v-17.4a1.324 1.324 0 0 1 1.3-1.3h17.4a1.324 1.324 0 0 1 1.3 1.3v17.4a1.324 1.324 0 0 1-1.3 1.3zm-16.1-2.6h14.8v-14.8h-14.8z"/><path class="b" d="M311.7 1547.1h-17.4a1.324 1.324 0 0 1-1.3-1.3v-17.4a1.324 1.324 0 0 1 1.3-1.3h17.4a1.324 1.324 0 0 1 1.3 1.3v17.4a1.324 1.324 0 0 1-1.3 1.3zm-16.1-2.6h14.8v-14.8h-14.8z"/><path class="a" d="M311.7 1573.1h-17.4a1.324 1.324 0 0 1-1.3-1.3v-17.3a1.324 1.324 0 0 1 1.3-1.3h17.4a1.324 1.324 0 0 1 1.3 1.3v17.4a1.24 1.24 0 0 1-1.3 1.2zm-16.1-2.6h14.8v-14.7h-14.8zM360.8 1508h-40.9a1.3 1.3 0 0 1 0-2.6h40.8a1.324 1.324 0 0 1 1.3 1.3 1.181 1.181 0 0 1-1.2 1.3zM343.4 1516.6h-23.5a1.3 1.3 0 0 1 0-2.6h23.5a1.324 1.324 0 0 1 1.3 1.3 1.261 1.261 0 0 1-1.3 1.3z"/><path class="b" d="M360.8 1534h-40.9a1.3 1.3 0 1 1 0-2.6h40.8a1.324 1.324 0 0 1 1.3 1.3 1.181 1.181 0 0 1-1.2 1.3zM343.4 1542.7h-23.5a1.3 1.3 0 0 1 0-2.6h23.5a1.3 1.3 0 1 1 0 2.6z"/><path class="a" d="M360.8 1560.1h-40.9a1.3 1.3 0 0 1 0-2.6h40.8a1.324 1.324 0 0 1 1.3 1.3 1.181 1.181 0 0 1-1.2 1.3zM343.4 1568.8h-23.5a1.3 1.3 0 0 1 0-2.6h23.5a1.3 1.3 0 0 1 0 2.6z"/><path class="b" d="M300.4 1541a1.222 1.222 0 0 1-.9-.4 1.266 1.266 0 0 1 0-1.8l5.3-5.6a1.374 1.374 0 0 1 1.8-.1 1.374 1.374 0 0 1 .1 1.8l-5.3 5.6a1.107 1.107 0 0 1-1 .5z"/><path class="b" d="M305.7 1541a1.086 1.086 0 0 1-.9-.4l-5.3-5.6a1.391 1.391 0 0 1 0-1.9 1.192 1.192 0 0 1 1.8.1l5.3 5.6a1.192 1.192 0 0 1-.1 1.8c-.1.3-.4.4-.8.4z"/></svg>