<svg xmlns="http://www.w3.org/2000/svg" viewBox="282 1661 91 75.5"><defs><style>.a{fill:#333}.b{fill:#ff9328}</style></defs><path class="a" d="M317 1736.5h-33.5a1.538 1.538 0 0 1-1.5-1.5v-60a1.538 1.538 0 0 1 1.5-1.5h9.5a1.5 1.5 0 0 1 0 3h-8v57h32a1.5 1.5 0 0 1 0 3zM371.5 1736.5H337a1.5 1.5 0 0 1 0-3h33v-57h-8a1.5 1.5 0 0 1 0-3h9.5a1.538 1.538 0 0 1 1.5 1.5v60a1.538 1.538 0 0 1-1.5 1.5zM327.5 1735a1.538 1.538 0 0 1-1.5-1.5v-59a1.5 1.5 0 0 1 3 0v59a1.538 1.538 0 0 1-1.5 1.5z"/><path class="a" d="M327 1735a1.5 1.5 0 0 1-1.5-1.3c0-.2-2.3-10.7-32-10.7a1.538 1.538 0 0 1-1.5-1.5v-59a1.538 1.538 0 0 1 1.5-1.5c32.9 0 35.4 12.7 35.5 13.3a1.471 1.471 0 0 1-2.9.5c-.1-.1-2.6-10.4-31.1-10.8v56c31.5.4 33.4 12.8 33.5 13.3a1.553 1.553 0 0 1-1.3 1.7z"/><path class="a" d="M328 1735h-.3a1.491 1.491 0 0 1-1.1-1.8c.1-.5 3-12.8 33.5-13.2v-56c-27.7.4-31.1 10.8-31.1 10.9a1.492 1.492 0 1 1-2.9-.7c.1-.6 3.6-13.2 35.4-13.2a1.538 1.538 0 0 1 1.5 1.5v59a1.538 1.538 0 0 1-1.5 1.5c-29.1 0-32 10.7-32 10.8a1.593 1.593 0 0 1-1.5 1.2z"/><path class="b" d="M336.3 1686.3a1.693 1.693 0 0 1-1.4-.9 1.638 1.638 0 0 1 .8-2 59.712 59.712 0 0 1 16.7-3.8 1.458 1.458 0 1 1 .3 2.9 57.548 57.548 0 0 0-15.9 3.6.764.764 0 0 1-.5.2zM336.3 1698.3a1.693 1.693 0 0 1-1.4-.9 1.638 1.638 0 0 1 .8-2 59.711 59.711 0 0 1 16.7-3.8 1.458 1.458 0 1 1 .3 2.9 57.549 57.549 0 0 0-15.9 3.6.764.764 0 0 1-.5.2zM336.3 1710.3a1.693 1.693 0 0 1-1.4-.9 1.638 1.638 0 0 1 .8-2 59.712 59.712 0 0 1 16.7-3.8 1.458 1.458 0 1 1 .3 2.9 57.549 57.549 0 0 0-15.9 3.6.764.764 0 0 1-.5.2zM318.6 1686.3a1.268 1.268 0 0 1-.6-.1 57.548 57.548 0 0 0-15.9-3.6 1.458 1.458 0 0 1 .3-2.9 63.448 63.448 0 0 1 16.7 3.8 1.507 1.507 0 0 1 .8 2 1.389 1.389 0 0 1-1.3.8zM318.6 1698.3a1.268 1.268 0 0 1-.6-.1 57.548 57.548 0 0 0-15.9-3.6 1.458 1.458 0 1 1 .3-2.9 63.448 63.448 0 0 1 16.7 3.8 1.507 1.507 0 0 1 .8 2 1.389 1.389 0 0 1-1.3.8zM318.6 1710.3a1.268 1.268 0 0 1-.6-.1 57.548 57.548 0 0 0-15.9-3.6 1.458 1.458 0 1 1 .3-2.9 63.448 63.448 0 0 1 16.7 3.8 1.507 1.507 0 0 1 .8 2 1.389 1.389 0 0 1-1.3.8z"/></svg>