<svg xmlns="http://www.w3.org/2000/svg" viewBox="283 1358 89.039 62.5"><defs><style>.a{fill:#333;}.b{fill:none;stroke:#f59d15;stroke-linecap:round;stroke-linejoin:round;stroke-miterlimit:10;stroke-width:2.5px;}</style></defs><g transform="translate(283.04 1358)"><path class="a" d="M79.5,47H9.5A2.476,2.476,0,0,1,7,44.5V2.5A2.476,2.476,0,0,1,9.5,0h70A2.476,2.476,0,0,1,82,2.5v42A2.476,2.476,0,0,1,79.5,47ZM10,44H79V3H10Z"/><path class="a" d="M44.5,23.5"/><path class="a" d="M87.5,62.5H1.5a1.709,1.709,0,0,1-1.3-.7,1.41,1.41,0,0,1-.1-1.4l7-15.5A1.508,1.508,0,0,1,8.5,44h72a1.508,1.508,0,0,1,1.4.9l6.9,15.3a1.077,1.077,0,0,1,.2.8A1.538,1.538,0,0,1,87.5,62.5Zm-83.7-3H85.2L79.5,47H9.5Z"/><path class="a" d="M52,58H37a1.5,1.5,0,0,1,0-3H52a1.5,1.5,0,0,1,0,3Z"/><path class="a" d="M53,62.5a1.593,1.593,0,0,1-1.5-1.2l-1-4.5a1.492,1.492,0,1,1,2.9-.7l1,4.5a1.491,1.491,0,0,1-1.1,1.8A.367.367,0,0,1,53,62.5Z"/><path class="a" d="M36,61.8h-.4A1.491,1.491,0,0,1,34.5,60l1-3.8a1.492,1.492,0,0,1,2.9.7l-1,3.8A1.32,1.32,0,0,1,36,61.8Z"/><path class="b" d="M44.5,28.9h0l3.2-3.2L53.1,31,59.6,8.4,37,14.9l5.4,5.4-3.3,3.2-9.6,9.7,5.3,5.4Z"/></g></svg>