<svg xmlns="http://www.w3.org/2000/svg" viewBox="293 1501 69.011 72.1"><defs><style>.a{fill:#333;}.b{fill:#ff9328;}</style></defs><g transform="translate(293 1501)"><path class="a" d="M18.7,20H1.3A1.324,1.324,0,0,1,0,18.7V1.3A1.324,1.324,0,0,1,1.3,0H18.7A1.324,1.324,0,0,1,20,1.3V18.7A1.324,1.324,0,0,1,18.7,20ZM2.6,17.4H17.4V2.6H2.6Z"/><path class="b" d="M18.7,46.1H1.3A1.324,1.324,0,0,1,0,44.8V27.4a1.324,1.324,0,0,1,1.3-1.3H18.7A1.324,1.324,0,0,1,20,27.4V44.8A1.324,1.324,0,0,1,18.7,46.1ZM2.6,43.5H17.4V28.7H2.6Z"/><path class="a" d="M18.7,72.1H1.3A1.324,1.324,0,0,1,0,70.8V53.5a1.324,1.324,0,0,1,1.3-1.3H18.7A1.324,1.324,0,0,1,20,53.5V70.9A1.24,1.24,0,0,1,18.7,72.1ZM2.6,69.5H17.4V54.8H2.6Z"/><path class="a" d="M67.8,7H26.9a1.3,1.3,0,0,1,0-2.6H67.7A1.324,1.324,0,0,1,69,5.7,1.181,1.181,0,0,1,67.8,7Z"/><path class="a" d="M50.4,15.6H26.9a1.3,1.3,0,0,1,0-2.6H50.4a1.324,1.324,0,0,1,1.3,1.3A1.261,1.261,0,0,1,50.4,15.6Z"/><path class="b" d="M67.8,33H26.9a1.3,1.3,0,1,1,0-2.6H67.7A1.324,1.324,0,0,1,69,31.7,1.181,1.181,0,0,1,67.8,33Z"/><path class="b" d="M50.4,41.7H26.9a1.3,1.3,0,0,1,0-2.6H50.4a1.3,1.3,0,1,1,0,2.6Z"/><path class="a" d="M67.8,59.1H26.9a1.3,1.3,0,0,1,0-2.6H67.7A1.324,1.324,0,0,1,69,57.8,1.181,1.181,0,0,1,67.8,59.1Z"/><path class="a" d="M50.4,67.8H26.9a1.3,1.3,0,0,1,0-2.6H50.4a1.3,1.3,0,0,1,0,2.6Z"/><path class="b" d="M7.4,40a1.222,1.222,0,0,1-.9-.4,1.266,1.266,0,0,1,0-1.8l5.3-5.6a1.374,1.374,0,0,1,1.8-.1,1.374,1.374,0,0,1,.1,1.8L8.4,39.5A1.107,1.107,0,0,1,7.4,40Z"/><path class="b" d="M12.7,40a1.086,1.086,0,0,1-.9-.4L6.5,34a1.391,1.391,0,0,1,0-1.9,1.192,1.192,0,0,1,1.8.1l5.3,5.6a1.192,1.192,0,0,1-.1,1.8C13.4,39.9,13.1,40,12.7,40Z"/></g></svg>