<svg xmlns="http://www.w3.org/2000/svg" viewBox="291 1822 72.8 78"><defs><style>.a{fill:#333;}.b{fill:#ff9328;}</style></defs><g transform="translate(291 1822)"><path class="a" d="M71.2,16.4a1.538,1.538,0,0,1-1.5-1.5A11.843,11.843,0,0,0,57.9,3a1.538,1.538,0,0,1-1.5-1.5A1.473,1.473,0,0,1,57.9,0,14.937,14.937,0,0,1,72.8,14.9,1.63,1.63,0,0,1,71.2,16.4Z"/><path class="a" d="M1.5,16.4A1.538,1.538,0,0,1,0,14.9,14.937,14.937,0,0,1,14.9,0a1.538,1.538,0,0,1,1.5,1.5A1.538,1.538,0,0,1,14.9,3,11.865,11.865,0,0,0,3,14.9,1.538,1.538,0,0,1,1.5,16.4Z"/><path class="b" d="M36.2,38.5A1.538,1.538,0,0,1,34.7,37V21a1.5,1.5,0,0,1,3,0V37A1.473,1.473,0,0,1,36.2,38.5Z"/><path class="b" d="M27.5,47.2a1.5,1.5,0,0,1-1.1-.4,1.45,1.45,0,0,1,0-2.1l8.8-8.8A1.485,1.485,0,1,1,37.3,38l-8.8,8.8A1.159,1.159,0,0,1,27.5,47.2Z"/><path class="b" d="M36.2,68.5A1.538,1.538,0,0,1,34.7,67V62a1.5,1.5,0,0,1,3,0v5A1.473,1.473,0,0,1,36.2,68.5Z"/><path class="b" d="M36.2,11.5A1.538,1.538,0,0,1,34.7,10V5a1.5,1.5,0,0,1,3,0v5A1.473,1.473,0,0,1,36.2,11.5Z"/><path class="b" d="M9.7,39h-5a1.5,1.5,0,0,1,0-3h5a1.538,1.538,0,0,1,1.5,1.5A1.473,1.473,0,0,1,9.7,39Z"/><path class="b" d="M67.7,39h-6a1.5,1.5,0,0,1,0-3h6a1.538,1.538,0,0,1,1.5,1.5A1.473,1.473,0,0,1,67.7,39Z"/><path class="b" d="M13.6,60.6a1.5,1.5,0,0,1-1.1-.4,1.45,1.45,0,0,1,0-2.1l4.7-4.7a1.485,1.485,0,0,1,2.1,2.1l-4.7,4.7A1.159,1.159,0,0,1,13.6,60.6Z"/><path class="b" d="M55.2,19a1.5,1.5,0,0,1-1.1-.4,1.45,1.45,0,0,1,0-2.1l3.1-3.1a1.485,1.485,0,0,1,2.1,2.1l-3.1,3.1A1.159,1.159,0,0,1,55.2,19Z"/><path class="b" d="M17.3,19a1.5,1.5,0,0,1-1.1-.4l-3.5-3.5A1.485,1.485,0,0,1,14.8,13l3.5,3.5a1.45,1.45,0,0,1,0,2.1A1.284,1.284,0,0,1,17.3,19Z"/><path class="b" d="M58.9,60.6a1.5,1.5,0,0,1-1.1-.4l-4.7-4.7a1.485,1.485,0,0,1,2.1-2.1l4.7,4.7a1.45,1.45,0,0,1,0,2.1A1.284,1.284,0,0,1,58.9,60.6Z"/><path class="a" d="M65.2,78H55.7a1.5,1.5,0,0,1,0-3H63l-3-7a1.523,1.523,0,1,1,2.8-1.2l3.9,9.1a1.392,1.392,0,0,1-.1,1.4A2.1,2.1,0,0,1,65.2,78Z"/><path class="a" d="M15.7,78H6.9a1.213,1.213,0,0,1-1.2-.7,1.7,1.7,0,0,1-.2-1.4l3.3-8.2a1.458,1.458,0,1,1,2.7,1.1L9.2,75h6.6a1.538,1.538,0,0,1,1.5,1.5A1.63,1.63,0,0,1,15.7,78Z"/><path class="a" d="M36.2,70A33.5,33.5,0,1,1,69.7,36.5,33.566,33.566,0,0,1,36.2,70Zm0-64A30.5,30.5,0,1,0,66.7,36.5,30.557,30.557,0,0,0,36.2,6Z"/></g></svg>