<svg xmlns="http://www.w3.org/2000/svg" viewBox="282 1661 91 75.5"><defs><style>.a{fill:#333;}.b{fill:#ff9328;}</style></defs><g transform="translate(282 1661)"><path class="a" d="M35,75.5H1.5A1.538,1.538,0,0,1,0,74V14a1.538,1.538,0,0,1,1.5-1.5H11a1.5,1.5,0,0,1,0,3H3v57H35a1.5,1.5,0,0,1,0,3Z"/><path class="a" d="M89.5,75.5H55a1.5,1.5,0,0,1,0-3H88v-57H80a1.5,1.5,0,0,1,0-3h9.5A1.538,1.538,0,0,1,91,14V74A1.538,1.538,0,0,1,89.5,75.5Z"/><path class="a" d="M45.5,74A1.538,1.538,0,0,1,44,72.5v-59a1.5,1.5,0,0,1,3,0v59A1.538,1.538,0,0,1,45.5,74Z"/><path class="a" d="M45,74a1.5,1.5,0,0,1-1.5-1.3c0-.2-2.3-10.7-32-10.7A1.538,1.538,0,0,1,10,60.5V1.5A1.538,1.538,0,0,1,11.5,0C44.4,0,46.9,12.7,47,13.3a1.471,1.471,0,0,1-2.9.5C44,13.7,41.5,3.4,13,3V59c31.5.4,33.4,12.8,33.5,13.3A1.553,1.553,0,0,1,45.2,74Z"/><path class="a" d="M46,74h-.3a1.491,1.491,0,0,1-1.1-1.8c.1-.5,3-12.8,33.5-13.2V3C50.4,3.4,47,13.8,47,13.9a1.492,1.492,0,1,1-2.9-.7C44.2,12.6,47.7,0,79.5,0A1.538,1.538,0,0,1,81,1.5v59A1.538,1.538,0,0,1,79.5,62c-29.1,0-32,10.7-32,10.8A1.593,1.593,0,0,1,46,74Z"/><path class="b" d="M54.3,25.3a1.693,1.693,0,0,1-1.4-.9,1.638,1.638,0,0,1,.8-2,59.712,59.712,0,0,1,16.7-3.8,1.458,1.458,0,1,1,.3,2.9,57.548,57.548,0,0,0-15.9,3.6A.764.764,0,0,1,54.3,25.3Z"/><path class="b" d="M54.3,37.3a1.693,1.693,0,0,1-1.4-.9,1.638,1.638,0,0,1,.8-2,59.711,59.711,0,0,1,16.7-3.8,1.458,1.458,0,1,1,.3,2.9,57.549,57.549,0,0,0-15.9,3.6A.764.764,0,0,1,54.3,37.3Z"/><path class="b" d="M54.3,49.3a1.693,1.693,0,0,1-1.4-.9,1.638,1.638,0,0,1,.8-2,59.712,59.712,0,0,1,16.7-3.8,1.458,1.458,0,1,1,.3,2.9,57.549,57.549,0,0,0-15.9,3.6A.764.764,0,0,1,54.3,49.3Z"/><path class="b" d="M36.6,25.3a1.268,1.268,0,0,1-.6-.1,57.548,57.548,0,0,0-15.9-3.6,1.458,1.458,0,0,1,.3-2.9,63.448,63.448,0,0,1,16.7,3.8,1.507,1.507,0,0,1,.8,2A1.389,1.389,0,0,1,36.6,25.3Z"/><path class="b" d="M36.6,37.3a1.268,1.268,0,0,1-.6-.1,57.548,57.548,0,0,0-15.9-3.6,1.458,1.458,0,1,1,.3-2.9,63.448,63.448,0,0,1,16.7,3.8,1.507,1.507,0,0,1,.8,2A1.389,1.389,0,0,1,36.6,37.3Z"/><path class="b" d="M36.6,49.3a1.268,1.268,0,0,1-.6-.1,57.548,57.548,0,0,0-15.9-3.6,1.458,1.458,0,1,1,.3-2.9,63.448,63.448,0,0,1,16.7,3.8,1.507,1.507,0,0,1,.8,2A1.389,1.389,0,0,1,36.6,49.3Z"/></g></svg>